<?xml version="1.0" encoding="utf-8"?>
<!-- Generator: Adobe Illustrator 19.1.1, SVG Export Plug-In . SVG Version: 6.00 Build 0)  -->
<svg version="1.1" id="Layer_1" xmlns="http://www.w3.org/2000/svg" xmlns:xlink="http://www.w3.org/1999/xlink" x="0px" y="0px"
	 viewBox="-463 265 32 32" style="enable-background:new -463 265 32 32;" xml:space="preserve">
<style type="text/css">
	.st0{fill:#FFFFFF;}
</style>
<path class="st0" d="M-437.9,287.7l-4.2-3.5c-0.4-0.4-0.9-0.6-1.3-0.6c1-1.2,1.6-2.7,1.6-4.3c0-3.7-3-6.7-6.7-6.7s-6.7,3-6.7,6.7
	s3,6.7,6.7,6.7c1.7,0,3.2-0.6,4.3-1.6c0,0.4,0.2,0.8,0.6,1.3l3.5,4.2c0.6,0.7,1.6,0.7,2.2,0.1C-437.1,289.3-437.2,288.3-437.9,287.7
	z M-448.4,283.7c-2.4,0-4.4-2-4.4-4.4s2-4.4,4.4-4.4s4.4,2,4.4,4.4S-446,283.7-448.4,283.7z"/>
</svg>
